<svg width="440" height="440" viewBox="0 0 440 440" fill="none" xmlns="http://www.w3.org/2000/svg">
<path d="M105.157 108.494C74.2435 138.286 56.8737 178.696 56.8691 220.833C56.8646 262.97 74.2256 303.383 105.133 333.181C136.04 362.98 177.962 379.723 221.676 379.727C265.39 379.731 307.316 362.997 338.23 333.205L105.157 108.494Z" fill="url(#paint0_linear_1830_2038)"/>
<path d="M105.773 108.648L104.76 109.682L335.514 334.522L336.575 333.535C366.632 303.602 383.359 263.326 383.125 221.451C382.89 179.575 365.714 139.479 335.324 109.867C304.933 80.2562 263.783 63.5198 220.805 63.2914C177.828 63.0631 136.493 79.3613 105.773 108.648V108.648Z" fill="url(#paint1_linear_1830_2038)"/>
<path d="M322.012 25.4772C320.728 24.1329 319.119 23.1234 317.332 22.5403C315.546 21.9573 313.638 21.8193 311.783 22.1389C309.928 22.4585 308.184 23.2256 306.71 24.3703C305.236 25.515 304.079 27.001 303.345 28.6931C303.187 29.0218 302.917 29.2866 302.58 29.442C302.244 29.5974 301.863 29.6336 301.502 29.5444L219.074 10.2015C215.922 9.06651 215.534 8.68816 215.001 8.16794C214.29 5.54523 212.608 3.27235 210.28 1.78805C207.952 0.30376 205.143 -0.286701 202.395 0.130658C199.646 0.548016 197.154 1.9436 195.399 4.048C193.644 6.1524 192.75 8.8164 192.89 11.5257L191.678 13.2756L140.136 34.4628C139.57 34.7098 138.933 34.76 138.333 34.6051C137.734 34.4502 137.206 34.0996 136.839 33.6116C135.951 32.4124 134.81 31.4126 133.493 30.6794C131.524 29.5359 129.243 29.0065 126.957 29.1621C124.671 29.3176 122.487 30.1506 120.7 31.5496C118.912 32.9487 117.605 34.8469 116.954 36.9903C116.303 39.1337 116.338 41.42 117.056 43.5431C117.182 43.928 117.163 44.3438 117.003 44.7163C116.843 45.0888 116.553 45.3938 116.183 45.5767L75.357 68.0882C75.1064 68.2293 74.8221 68.3036 74.5327 68.3036C74.2434 68.3036 73.9591 68.2293 73.7085 68.0882C72.5752 67.3787 71.2389 67.0419 69.8952 67.127C68.5515 67.2121 67.271 67.7147 66.2414 68.5611C65.6734 69.2077 65.2471 69.9609 64.9886 70.7742C64.7301 71.5875 64.6449 72.4438 64.7383 73.2904C64.895 74.2908 65.3123 75.2353 65.9505 76.0334C66.1043 76.2834 66.1856 76.5694 66.1856 76.861C66.1856 77.1526 66.1043 77.4387 65.9505 77.6886L45.7312 120.063C45.6323 120.277 45.4904 120.469 45.3139 120.628C45.1374 120.787 44.93 120.91 44.7038 120.989C44.4777 121.069 44.2375 121.103 43.9975 121.09C43.7576 121.077 43.5227 121.018 43.3069 120.914C41.0348 119.971 38.5085 119.78 36.1144 120.37C33.7204 120.96 31.5905 122.299 30.0506 124.182C28.5107 126.065 27.6457 128.388 27.5879 130.795C27.5301 133.203 28.2826 135.563 29.7304 137.514C30.4352 138.486 31.3042 139.333 32.3002 140.021C32.6028 140.239 32.8071 140.562 32.8704 140.924C32.9337 141.285 32.851 141.656 32.6396 141.96L10.5294 174.072C10.2959 174.41 9.97675 174.683 9.60294 174.866C9.22913 175.048 8.81335 175.133 8.39596 175.112C7.48783 175.035 6.57401 175.171 5.7306 175.508C4.8872 175.846 4.13862 176.375 3.54722 177.051C2.70875 178.062 2.25127 179.322 2.25127 180.622C2.25127 181.922 2.70875 183.182 3.54722 184.192C4.18071 184.988 5.01652 185.607 5.97159 185.99C6.281 186.105 6.55019 186.305 6.74768 186.564C6.94517 186.824 7.06279 187.133 7.0868 187.456L10.4324 235.694C10.469 236.371 10.2679 237.04 9.86241 237.59C9.45693 238.14 8.87125 238.539 8.20201 238.721C5.83278 239.316 3.73431 240.664 2.23806 242.552C1.01057 244.159 0.255583 246.062 0.0543356 248.056C-0.146912 250.05 0.213202 252.06 1.09592 253.87C1.97865 255.679 3.35056 257.22 5.06403 258.326C6.77749 259.431 8.76765 260.06 10.8203 260.145C11.2003 260.142 11.5682 260.275 11.8542 260.519C12.1402 260.763 12.3244 261.101 12.3719 261.469L17.851 309.992C17.891 310.293 17.8687 310.599 17.7854 310.891C17.7021 311.183 17.5595 311.457 17.3661 311.694C16.8213 312.351 16.4198 313.109 16.1863 313.922C15.9529 314.735 15.8923 315.587 16.0085 316.424C16.0879 317.302 16.3971 318.146 16.9064 318.875C17.4158 319.603 18.1083 320.192 18.9177 320.585C19.8342 321.082 20.8776 321.312 21.9239 321.248C22.5638 321.21 23.2038 321.319 23.793 321.565C24.3822 321.812 24.9044 322.189 25.3181 322.666L98.0491 409.071C98.3111 409.403 98.4984 409.785 98.5986 410.192C98.6989 410.6 98.7099 411.023 98.631 411.435C98.4424 412.556 98.6027 413.706 99.0912 414.736C99.5797 415.767 100.374 416.631 101.371 417.217C102.369 417.802 103.523 418.083 104.686 418.022C105.848 417.961 106.965 417.561 107.892 416.874C108.216 416.642 108.509 416.372 108.765 416.07C109.017 415.769 109.351 415.543 109.728 415.418C110.105 415.293 110.51 415.273 110.898 415.361L162.78 426.664C163.871 426.937 164.832 427.572 165.495 428.461C166.319 429.617 167.374 430.599 168.598 431.346C169.868 432.133 171.286 432.667 172.77 432.915C174.253 433.163 175.772 433.121 177.239 432.791C178.706 432.461 180.09 431.85 181.312 430.993C182.534 430.135 183.569 429.05 184.357 427.799C184.601 427.397 184.961 427.075 185.393 426.873C185.824 426.671 186.307 426.598 186.781 426.664L243.463 433.237C243.943 433.297 244.39 433.51 244.732 433.844C245.074 434.178 245.293 434.613 245.354 435.082C245.458 435.875 245.738 436.636 246.173 437.314C246.608 437.992 247.189 438.569 247.875 439.007C248.838 439.654 249.979 440 251.148 440C252.317 440 253.458 439.654 254.421 439.007C255.201 438.482 255.832 437.773 256.256 436.946C256.68 436.119 256.882 435.201 256.845 434.278C256.834 433.875 256.948 433.478 257.174 433.14C257.399 432.802 257.724 432.539 258.106 432.386L292.047 417.867C293.322 417.365 294.707 417.186 296.072 417.347C297.736 417.5 299.415 417.296 300.99 416.749C302.565 416.201 303.997 415.324 305.187 414.178C305.743 413.625 306.246 413.023 306.69 412.381C307.096 411.74 307.686 411.23 308.387 410.915L356.875 390.201L359.008 390.579C359.594 391.132 360.286 391.566 361.045 391.856C362.318 392.416 363.755 392.51 365.094 392.122C366.433 391.734 367.584 390.889 368.337 389.741C369.089 388.594 369.394 387.221 369.195 385.872C368.995 384.524 368.306 383.291 367.251 382.397L366.718 381.972L379.761 350.995C380.072 350.235 380.642 349.604 381.375 349.207C382.109 348.811 382.96 348.674 383.785 348.819C388.03 349.53 392.397 348.917 396.264 347.066C400.13 345.215 403.299 342.221 405.32 338.51C407.34 334.8 408.108 330.563 407.515 326.402C406.922 322.24 404.998 318.368 402.016 315.336C401.368 314.673 400.671 314.056 399.932 313.491C399.55 313.194 399.288 312.776 399.19 312.309C399.093 311.842 399.166 311.357 399.398 310.938L421.363 272.536C421.663 271.987 422.162 271.567 422.763 271.357C423.363 271.147 424.022 271.163 424.612 271.401C426.177 271.994 427.858 272.239 429.532 272.119C431.207 271.998 432.833 271.516 434.292 270.705C435.751 269.895 437.007 268.778 437.968 267.434C438.928 266.091 439.57 264.556 439.846 262.941C440.122 261.325 440.026 259.67 439.563 258.096C439.101 256.521 438.285 255.067 437.174 253.839C436.063 252.611 434.686 251.64 433.142 250.996C431.598 250.353 429.926 250.053 428.248 250.119C427.588 250.136 426.944 249.913 426.443 249.494C425.941 249.074 425.617 248.488 425.533 247.849L421.363 211.528C421.315 211.241 421.334 210.948 421.418 210.67C421.502 210.392 421.649 210.135 421.848 209.92C423.994 207.733 425.178 204.813 425.145 201.785C425.042 200.612 424.748 199.463 424.272 198.38C423.309 196.093 421.795 194.066 419.86 192.469C419.62 192.288 419.423 192.06 419.281 191.799C419.138 191.538 419.055 191.25 419.036 190.955L414.866 154.729C414.776 153.889 415.008 153.047 415.519 152.365C416.03 151.684 416.782 151.211 417.629 151.04C420.026 150.549 422.19 149.303 423.787 147.493C425.503 145.472 426.438 142.928 426.428 140.304C426.418 137.68 425.465 135.143 423.734 133.134C422.003 131.125 419.605 129.772 416.956 129.311C414.308 128.849 411.578 129.309 409.241 130.609C408.729 130.97 408.258 131.382 407.835 131.839C407.712 131.971 407.563 132.077 407.396 132.149C407.229 132.221 407.048 132.258 406.865 132.258C406.683 132.258 406.502 132.221 406.335 132.149C406.168 132.077 406.018 131.971 405.895 131.839L375.009 97.3152C374.82 97.0878 374.717 96.804 374.717 96.5112C374.717 96.2185 374.82 95.9347 375.009 95.7073C376.432 93.7288 377.149 91.349 377.049 88.9343C376.949 86.5196 376.038 84.2039 374.456 82.3438C372.874 80.4838 370.709 79.1825 368.294 78.6404C365.88 78.0983 363.35 78.3455 361.093 79.3439C360.616 79.5576 360.082 79.6178 359.568 79.5158C359.053 79.4138 358.586 79.1548 358.232 78.7764L323.903 41.4149C323.611 41.0144 323.454 40.535 323.454 40.0434C323.454 39.5518 323.611 39.0724 323.903 38.6719C325.108 36.5727 325.575 34.1467 325.234 31.7642C324.892 29.3817 323.761 27.1737 322.012 25.4772V25.4772ZM354.596 95.2343L324.388 123.988C323.826 124.524 323.1 124.865 322.32 124.959C321.541 125.053 320.751 124.895 320.073 124.509C317.421 122.974 314.448 122.042 311.376 121.78C308.304 121.518 305.211 121.933 302.326 122.995C301.524 123.299 300.634 123.303 299.829 123.007C299.023 122.71 298.359 122.133 297.963 121.387L259.173 47.894C258.957 47.467 258.888 46.9838 258.976 46.5155C259.063 46.0473 259.302 45.6187 259.658 45.2929V45.2929C261.505 43.4694 262.652 41.0813 262.906 38.53C262.941 38.1869 263.104 37.868 263.362 37.6329C263.621 37.3979 263.959 37.2629 264.312 37.2531L300.145 35.1249C300.754 35.0937 301.359 35.2505 301.872 35.573C302.386 35.8956 302.782 36.3676 303.005 36.9221C303.567 38.3387 304.424 39.6267 305.521 40.7051C306.618 41.7835 307.931 42.6291 309.379 43.1887C310.827 43.7482 312.378 44.0098 313.935 43.9568C315.491 43.9039 317.02 43.5376 318.424 42.881C318.892 42.6633 319.42 42.6009 319.928 42.7034C320.436 42.8059 320.895 43.0676 321.236 43.4485L355.469 80.7154C355.795 81.1289 355.972 81.636 355.972 82.1578C355.972 82.6796 355.795 83.1868 355.469 83.6003C354.573 85.0519 354.025 86.6818 353.866 88.3687C353.706 90.0556 353.939 91.7558 354.547 93.3426C354.753 93.6153 354.867 93.9428 354.876 94.281C354.885 94.6193 354.787 94.952 354.596 95.2343ZM239.244 39.1448C239.586 39.1246 239.924 39.2226 240.199 39.4216C240.474 39.6206 240.668 39.9077 240.747 40.2326C241.532 42.8832 243.306 45.1506 245.721 46.5866C248.136 48.0227 251.016 48.523 253.791 47.9886C254.267 47.8865 254.764 47.9428 255.203 48.1486C255.643 48.3543 255.999 48.6976 256.215 49.1237L295.635 123.326C295.995 123.988 296.128 124.744 296.015 125.485C295.901 126.225 295.547 126.911 295.005 127.441V127.441C293.843 128.556 292.833 129.811 291.999 131.177C291.621 131.775 291.067 132.248 290.41 132.534C289.753 132.821 289.022 132.908 288.314 132.785L168.453 110.226C167.944 110.137 167.484 109.873 167.155 109.483C166.826 109.094 166.651 108.603 166.659 108.098C166.607 105.254 165.425 102.541 163.362 100.531C162.259 99.4692 160.948 98.6365 159.506 98.0837C158.064 97.5309 156.522 97.2695 154.973 97.3152C154.515 97.3344 154.062 97.2121 153.679 96.9659C153.296 96.7197 153.003 96.362 152.84 95.9437L134.512 49.7858C134.448 49.5963 134.442 49.3931 134.494 49.2003C134.545 49.0074 134.652 48.8331 134.803 48.698L135.724 47.9413C137.063 46.6349 138.017 45.0015 138.488 43.212C138.572 43.0397 138.702 42.8921 138.864 42.7841C139.025 42.6762 139.213 42.6117 139.409 42.5972L239.244 39.1448ZM216.407 12.6135L296.993 31.5307C297.056 31.5552 297.11 31.5977 297.148 31.6524C297.186 31.7072 297.206 31.7719 297.206 31.8381C297.206 31.9043 297.186 31.9689 297.148 32.0237C297.11 32.0785 297.056 32.1209 296.993 32.1455L263.973 33.8953C263.569 33.9278 263.164 33.8357 262.816 33.6321C262.468 33.4285 262.194 33.1236 262.033 32.7603C261.366 31.302 260.391 29.9969 259.173 28.9296C257.487 27.5313 255.422 26.6396 253.228 26.3626C251.033 26.0856 248.803 26.4352 246.808 27.3689C244.762 28.2838 243.065 29.8068 241.96 31.7198L213.934 18.9507L213.401 17.1536C214.19 16.0514 214.766 14.8171 215.098 13.512C215.608 13.3314 216.06 13.0212 216.407 12.6135V12.6135ZM325.988 296.371L302.084 393.464C301.946 394.003 301.605 394.473 301.129 394.779C300.653 395.085 300.077 395.207 299.514 395.119C297.704 394.758 295.831 394.842 294.062 395.362C292.293 395.882 290.684 396.822 289.38 398.099C288.689 398.751 288.1 399.5 287.635 400.321C287.39 400.735 286.991 401.04 286.521 401.172C286.051 401.304 285.546 401.254 285.113 401.031L196.188 356.434C195.96 356.319 195.761 356.157 195.605 355.96C195.449 355.762 195.339 355.533 195.283 355.289C195.228 355.046 195.228 354.793 195.284 354.55C195.339 354.306 195.449 354.077 195.606 353.88L196.43 352.555C197.398 350.701 197.833 348.626 197.691 346.549C197.67 346.156 197.763 345.766 197.961 345.422C198.158 345.079 198.451 344.798 198.806 344.61L315.176 289.277C315.267 289.229 315.368 289.199 315.473 289.189C315.577 289.179 315.682 289.19 315.781 289.221C315.881 289.252 315.973 289.302 316.052 289.369C316.132 289.435 316.196 289.517 316.242 289.608C316.753 290.509 317.39 291.337 318.133 292.068C320.008 293.889 322.479 295.01 325.115 295.236C325.249 295.212 325.387 295.223 325.515 295.267C325.642 295.311 325.756 295.388 325.845 295.488C325.933 295.589 325.993 295.71 326.018 295.84C326.043 295.97 326.033 296.104 325.988 296.23V296.371ZM160.258 120.252L200.988 201.691C201.517 202.722 201.642 203.907 201.338 205.022C201.035 206.137 200.324 207.105 199.339 207.744C197.051 209.274 195.112 211.248 193.644 213.543C192.175 215.838 191.209 218.404 190.805 221.081C190.661 222.287 190.104 223.409 189.224 224.268C188.344 225.126 187.193 225.669 185.957 225.81L92.667 233.661C92.4258 233.683 92.1831 233.637 91.9681 233.528C91.7531 233.419 91.5749 233.251 91.4548 233.046C90.9559 232.138 90.3183 231.308 89.5638 230.587L89.1759 230.256L153.761 120.394C153.968 120.071 154.253 119.803 154.591 119.614C154.93 119.424 155.311 119.318 155.701 119.306C156.394 119.376 157.092 119.376 157.786 119.306C158.247 119.185 158.737 119.211 159.182 119.381C159.627 119.552 160.005 119.857 160.258 120.252V120.252ZM314.691 286.298L198.321 341.584C197.868 341.798 197.352 341.849 196.864 341.728C196.375 341.607 195.947 341.321 195.654 340.921C195.295 340.457 194.906 340.015 194.491 339.597C193.652 338.811 192.705 338.143 191.678 337.611C191.238 337.401 190.881 337.056 190.662 336.629C190.443 336.201 190.374 335.716 190.466 335.246L206.127 253.902C206.606 251.373 207.837 249.038 209.667 247.187C211.596 245.429 213.896 244.105 216.407 243.309C219.042 242.188 221.519 240.741 223.777 239.005C225.022 238.068 226.505 237.476 228.067 237.293C229.629 237.11 231.212 237.342 232.65 237.965L318.473 274.806C318.583 274.88 318.673 274.979 318.735 275.094C318.797 275.209 318.829 275.338 318.829 275.468C318.829 275.598 318.797 275.727 318.735 275.842C318.673 275.957 318.583 276.056 318.473 276.13L318.085 276.461C316.891 277.628 315.98 279.041 315.418 280.595C314.856 282.15 314.657 283.807 314.836 285.447C314.904 285.586 314.926 285.742 314.9 285.895C314.874 286.047 314.801 286.187 314.691 286.298ZM89.5638 245.957C90.673 244.887 91.5396 243.601 92.1076 242.184C92.6755 240.766 92.9322 239.248 92.861 237.728C92.8409 237.563 92.8554 237.395 92.9036 237.236C92.9519 237.076 93.0328 236.927 93.1416 236.799C93.2504 236.671 93.3848 236.566 93.5366 236.49C93.6884 236.413 93.8544 236.368 94.0247 236.357L186.49 228.317C187.701 228.233 188.908 228.521 189.943 229.14C190.977 229.759 191.788 230.679 192.26 231.769C193.286 234.081 194.75 236.183 196.575 237.965C197.84 239.208 199.276 240.275 200.842 241.133C202.036 241.817 202.987 242.84 203.568 244.066C204.148 245.291 204.331 246.661 204.091 247.991L187.557 334.064C187.439 334.685 187.121 335.253 186.651 335.686C186.18 336.12 185.581 336.396 184.939 336.476C183.747 336.663 182.588 337.013 181.496 337.516C180.814 337.828 180.05 337.922 179.31 337.786C178.57 337.651 177.893 337.291 177.374 336.76L88.2062 249.078C88.0638 248.963 87.9491 248.818 87.8705 248.655C87.7918 248.491 87.751 248.313 87.751 248.133C87.751 247.952 87.7918 247.774 87.8705 247.61C87.9491 247.447 88.0638 247.302 88.2062 247.187C88.7044 246.828 89.1598 246.415 89.5638 245.957V245.957ZM323.564 273.387C323.48 273.422 323.389 273.44 323.297 273.44C323.206 273.44 323.115 273.422 323.031 273.387L235.753 235.884C234.15 235.182 232.834 233.975 232.017 232.458C231.199 230.94 230.927 229.199 231.244 227.513C231.802 223.128 231.114 218.678 229.256 214.649C228.86 213.861 228.407 213.103 227.898 212.379C227.111 211.31 226.787 209.981 226.995 208.68C227.204 207.379 227.929 206.211 229.014 205.427L294.181 158.134C294.779 157.731 295.49 157.516 296.217 157.516C296.944 157.516 297.655 157.731 298.254 158.134C299.753 159.144 301.384 159.955 303.102 160.546C303.72 160.728 304.272 161.079 304.693 161.556C305.113 162.034 305.386 162.618 305.478 163.242L324.388 272.678C324.411 272.792 324.406 272.91 324.375 273.023C324.343 273.136 324.285 273.239 324.205 273.327C324.125 273.414 324.026 273.481 323.914 273.525C323.803 273.568 323.683 273.586 323.564 273.576V273.387ZM291.174 156.668L225.474 204.339C224.439 205.094 223.227 205.584 221.949 205.766C220.67 205.947 219.365 205.815 218.152 205.38C215.475 204.405 212.615 204.002 209.764 204.197C208.561 204.271 207.363 203.99 206.325 203.392C205.288 202.793 204.458 201.904 203.946 200.84L162.877 118.644C162.661 118.233 162.591 117.764 162.679 117.31C162.767 116.856 163.007 116.444 163.362 116.138V116.138C163.99 115.524 164.543 114.842 165.01 114.104C165.248 113.727 165.599 113.43 166.015 113.253C166.431 113.075 166.892 113.026 167.338 113.111L286.326 135.528C287.199 135.71 287.972 136.204 288.492 136.913C289.012 137.621 289.242 138.493 289.138 139.359C288.594 143.814 289.62 148.317 292.047 152.128C292.513 152.853 292.682 153.723 292.521 154.564C292.359 155.406 291.878 156.157 291.174 156.668V156.668ZM131.845 51.3464L149.834 96.6531C150.02 97.1135 150.04 97.6221 149.89 98.095C149.74 98.5679 149.43 98.9768 149.009 99.2542C148.434 99.6274 147.898 100.055 147.409 100.531C146.336 101.558 145.489 102.789 144.922 104.147C144.355 105.505 144.079 106.963 144.112 108.429C144.122 108.952 143.943 109.461 143.606 109.868C143.269 110.274 142.796 110.552 142.27 110.652L50.6769 127.725C50.3889 127.778 50.091 127.731 49.8344 127.593C49.5777 127.455 49.3785 127.234 49.2708 126.968V126.968C49.1791 126.755 49.1531 126.521 49.1962 126.294C49.2393 126.067 49.3495 125.858 49.5133 125.691L120.45 49.5493C120.622 49.415 120.836 49.3418 121.056 49.3418C121.277 49.3418 121.49 49.415 121.662 49.5493C122.986 50.3747 124.474 50.9191 126.027 51.1473C127.581 51.3754 129.167 51.2821 130.681 50.8735C130.901 50.8041 131.139 50.8137 131.353 50.9004C131.566 50.9871 131.74 51.1453 131.845 51.3464ZM52.1316 130.326L143.676 113.537C144.104 113.446 144.551 113.483 144.957 113.643C145.364 113.803 145.711 114.08 145.955 114.435C146.342 115.09 146.833 115.68 147.409 116.185C148.032 116.786 148.714 117.324 149.446 117.793C149.919 118.094 150.258 118.56 150.393 119.096C150.528 119.631 150.449 120.197 150.173 120.678L87.1395 227.655C86.9859 227.92 86.7403 228.123 86.4469 228.227C86.1535 228.331 85.8316 228.329 85.5394 228.222C83.8497 227.557 82.0124 227.329 80.2058 227.56C79.908 227.589 79.6086 227.522 79.3543 227.368C79.1 227.214 78.905 226.982 78.7996 226.709L47.4283 140.21C47.2746 139.812 47.2251 139.383 47.2844 138.962C47.3436 138.541 47.5098 138.141 47.7677 137.798C48.9939 136.242 49.7798 134.399 50.0466 132.454C50.1265 131.933 50.3698 131.448 50.7431 131.067C51.1164 130.686 51.6014 130.427 52.1316 130.326V130.326ZM42.1432 141.581C42.7414 141.4 43.3886 141.451 43.949 141.724C44.5095 141.997 44.9397 142.472 45.1494 143.048L75.9874 227.607C76.0953 227.873 76.1008 228.168 76.0027 228.438C75.9046 228.708 75.7097 228.933 75.454 229.073C74.7703 229.511 74.1363 230.018 73.563 230.587C71.706 232.384 70.5561 234.762 70.3143 237.302C70.2702 237.58 70.1395 237.838 69.94 238.041C69.7405 238.244 69.4819 238.383 69.1991 238.437L22.6512 244.255C22.1657 244.299 21.6766 244.218 21.2338 244.018C20.791 243.819 20.4101 243.509 20.1299 243.119C19.7906 242.554 19.3837 242.03 18.9177 241.559C18.2159 240.854 17.4161 240.249 16.5418 239.762C16.0474 239.473 15.662 239.036 15.4435 238.516C15.225 237.996 15.185 237.421 15.3297 236.877L40.5916 143.142C40.6957 142.776 40.8923 142.442 41.1634 142.169C41.4345 141.896 41.7713 141.694 42.1432 141.581V141.581ZM20.1299 255.416C21.4539 253.542 22.133 251.306 22.0694 249.031C22.0741 248.565 22.2467 248.115 22.5569 247.761C22.8671 247.407 23.2953 247.17 23.7665 247.092L69.6355 241.228C69.9268 241.201 70.2188 241.271 70.4648 241.425C70.7109 241.579 70.8969 241.81 70.9932 242.079C71.6103 243.654 72.5853 245.073 73.845 246.227C75.1046 247.382 76.6163 248.244 78.2663 248.747C78.5425 248.841 78.7786 249.023 78.9368 249.263C79.0949 249.503 79.1662 249.787 79.139 250.072L72.2538 340.543C72.2413 340.823 72.1183 341.088 71.9105 341.282C71.7027 341.476 71.4262 341.584 71.1386 341.584V341.584C70.9365 341.595 70.7349 341.553 70.5555 341.461C70.3761 341.37 70.2257 341.232 70.1204 341.063L20.0329 257.686C19.8156 257.341 19.7088 256.941 19.7261 256.536C19.7433 256.132 19.884 255.742 20.1299 255.416V255.416ZM83.1635 249.173C83.3554 249.132 83.5552 249.14 83.7425 249.199C83.9299 249.257 84.0981 249.362 84.2302 249.504L175.774 339.361C176.134 339.715 176.37 340.171 176.449 340.663C176.527 341.156 176.444 341.66 176.211 342.104C175.69 343.083 175.33 344.137 175.144 345.225C174.997 345.997 174.576 346.695 173.956 347.196C173.336 347.697 172.555 347.97 171.75 347.968L82.4362 347.495C82.2348 347.502 82.0351 347.457 81.8566 347.366C81.6781 347.275 81.527 347.14 81.4179 346.975C80.1826 344.829 78.2322 343.161 75.8904 342.246C75.6658 342.154 75.4779 341.994 75.3554 341.789C75.2328 341.584 75.1823 341.346 75.2116 341.111L82.1937 250.686C82.1643 250.357 82.2624 250.028 82.4688 249.766C82.6752 249.503 82.9749 249.325 83.309 249.268L83.1635 249.173ZM83.9393 350.38L174.077 351.231C174.561 351.24 175.033 351.376 175.443 351.626C175.852 351.876 176.185 352.23 176.405 352.65C176.948 353.572 177.598 354.429 178.344 355.204L178.635 355.44C179.222 355.958 179.671 356.608 179.941 357.333C180.212 358.059 180.296 358.838 180.187 359.602L174.659 408.74C174.594 409.334 174.331 409.891 173.911 410.327C173.491 410.762 172.936 411.052 172.332 411.151C170.231 411.599 168.311 412.635 166.804 414.131L166.368 414.557C165.994 414.882 165.511 415.062 165.01 415.062C164.509 415.062 164.026 414.882 163.653 414.557L82.4362 357.805C82.2135 357.66 82.0517 357.441 81.9805 357.19C81.9092 356.938 81.9333 356.669 82.0483 356.434C82.7202 354.831 83.0183 353.102 82.9211 351.373C82.9774 351.115 83.1245 350.883 83.337 350.719C83.5494 350.555 83.8139 350.469 84.0848 350.475L83.9393 350.38ZM177.714 408.787L183.144 361.494C183.261 360.616 183.697 359.808 184.374 359.217C185.05 358.627 185.922 358.293 186.83 358.278C187.922 358.277 189.006 358.085 190.03 357.71C190.841 357.404 191.74 357.404 192.551 357.71L285.598 404.53C285.802 404.622 285.975 404.768 286.095 404.953C286.216 405.137 286.279 405.352 286.277 405.571C286.253 405.996 286.253 406.422 286.277 406.848C286.297 407.023 286.28 407.201 286.226 407.369C286.173 407.537 286.084 407.693 285.965 407.827C285.847 407.96 285.702 408.068 285.538 408.144C285.375 408.219 285.197 408.261 285.016 408.267L185.714 415.361C185.273 415.412 184.826 415.357 184.412 415.2C183.997 415.043 183.629 414.79 183.338 414.462L182.951 414.131C182.037 413.2 180.951 412.446 179.75 411.908C179.109 411.674 178.564 411.243 178.197 410.68C177.829 410.117 177.66 409.452 177.714 408.787ZM304.557 396.112L329.237 295.236C329.277 295.109 329.346 294.992 329.438 294.894C329.53 294.796 329.644 294.719 329.77 294.669C331.398 294.145 332.877 293.253 334.086 292.068C334.564 291.582 335.208 291.284 335.897 291.232C336.585 291.179 337.27 291.376 337.819 291.784L368.172 315.147C368.889 315.69 369.384 316.463 369.571 317.329C369.757 318.195 369.623 319.098 369.191 319.876C366.862 324.497 366.446 329.814 368.027 334.726C368.214 335.34 368.232 335.991 368.079 336.614C367.925 337.237 367.606 337.809 367.154 338.273L306.884 398.146C306.789 398.248 306.673 398.329 306.543 398.385C306.414 398.44 306.274 398.469 306.133 398.469C305.991 398.469 305.851 398.44 305.722 398.385C305.593 398.329 305.477 398.248 305.381 398.146V398.146C305.05 397.927 304.794 397.616 304.647 397.253C304.5 396.89 304.469 396.493 304.557 396.112V396.112ZM386.84 307.438C386.745 307.853 386.522 308.229 386.201 308.516C385.881 308.804 385.477 308.989 385.046 309.046C380.444 309.562 376.156 311.578 372.876 314.768V314.768L338.45 288.521C338.069 288.227 337.775 287.841 337.596 287.401C337.417 286.961 337.36 286.482 337.431 286.014C337.697 284.303 337.545 282.555 336.989 280.912C336.433 279.269 335.488 277.776 334.231 276.556L402.113 216.494C402.438 216.209 402.846 216.031 403.279 215.984C403.713 215.938 404.151 216.025 404.531 216.234C404.911 216.443 405.215 216.763 405.399 217.149C405.582 217.535 405.638 217.967 405.556 218.385L386.84 307.438ZM403.326 210.677L333.213 272.961C332.742 273.395 332.162 273.698 331.531 273.839C330.9 273.98 330.242 273.955 329.625 273.765C328.956 273.579 328.357 273.207 327.901 272.695C327.444 272.183 327.151 271.553 327.055 270.88L309.066 165.559C308.991 165.105 309.009 164.641 309.12 164.194C309.231 163.747 309.432 163.326 309.712 162.956C309.992 162.586 310.345 162.274 310.751 162.039C311.156 161.804 311.605 161.65 312.072 161.586C316.544 160.999 320.697 159.007 323.903 155.911L325.164 154.587C325.698 153.941 326.452 153.505 327.289 153.357C328.126 153.209 328.99 153.361 329.722 153.783L401.144 196.347C401.726 196.699 402.178 197.225 402.431 197.847C402.684 198.468 402.726 199.153 402.55 199.799C401.801 202.615 402.219 205.605 403.714 208.123C403.966 208.534 404.065 209.017 403.994 209.491C403.923 209.964 403.687 210.4 403.326 210.724V210.677ZM192.503 16.1605L194.491 16.7753C194.942 17.5381 195.496 18.238 196.139 18.8562C197.806 20.4907 199.959 21.5715 202.292 21.945C204.624 22.3186 207.018 21.9659 209.134 20.937H210.685L239.778 34.1791C239.986 34.2706 240.156 34.4276 240.261 34.6248C240.367 34.8221 240.401 35.0481 240.36 35.2668V35.2668C240.307 35.4972 240.18 35.7049 239.996 35.8584C239.813 36.012 239.583 36.1031 239.341 36.1181L140.136 39.8069C139.89 39.8094 139.65 39.7245 139.463 39.5679C139.276 39.4113 139.153 39.1938 139.118 38.9557C139.093 38.7574 139.137 38.5567 139.243 38.3854C139.348 38.2141 139.509 38.082 139.7 38.0098L192.503 16.1605ZM68.5688 79.7695C68.7745 79.3328 69.0924 78.9552 69.4916 78.6735C69.8909 78.3918 70.358 78.2154 70.8477 78.1616C72.207 78.0792 73.4862 77.5059 74.4358 76.5536C74.9691 76.0499 75.3939 75.4475 75.6853 74.7815C75.9767 74.1156 76.1288 73.3996 76.1328 72.6756C76.1456 72.1862 76.2858 71.708 76.5402 71.2861C76.7947 70.8641 77.1551 70.5123 77.5874 70.2636L115.408 49.4074C115.449 49.3764 115.496 49.3536 115.547 49.3403C115.597 49.3271 115.65 49.3237 115.701 49.3303C115.753 49.3368 115.803 49.3533 115.848 49.3787C115.894 49.4041 115.933 49.438 115.965 49.4784C115.997 49.5187 116.02 49.5648 116.034 49.614C116.048 49.6632 116.051 49.7145 116.044 49.765C116.038 49.8155 116.021 49.8642 115.995 49.9083C115.969 49.9525 115.934 49.9912 115.892 50.0222L49.3193 121.293C49.2569 121.346 49.1789 121.378 49.0967 121.384C49.0144 121.391 48.9321 121.371 48.8618 121.329C48.7915 121.287 48.7368 121.224 48.7057 121.149C48.6746 121.075 48.6688 120.992 48.689 120.914L68.5688 79.7695ZM9.7536 187.219C9.7387 186.894 9.81701 186.571 9.97975 186.287C10.1425 186.003 10.3832 185.769 10.6749 185.611C11.1209 185.37 11.5291 185.067 11.887 184.713C12.7867 183.824 13.3636 182.673 13.53 181.435C13.6963 180.197 13.4429 178.94 12.8083 177.855C12.6322 177.578 12.5389 177.259 12.5389 176.933C12.5389 176.607 12.6322 176.288 12.8083 176.011L36.1307 142.196C36.2031 142.066 36.3215 141.965 36.4641 141.913C36.6067 141.86 36.7639 141.86 36.9065 141.913V141.913C37.0082 141.929 37.1052 141.966 37.1912 142.021C37.2771 142.076 37.35 142.149 37.405 142.234C37.46 142.319 37.4959 142.414 37.5103 142.514C37.5246 142.613 37.5172 142.715 37.4884 142.811L13.6326 230.965C13.6028 231.049 13.5471 231.121 13.4733 231.172C13.3994 231.223 13.3111 231.251 13.2205 231.251C13.1298 231.251 13.0415 231.223 12.9676 231.172C12.8938 231.121 12.8381 231.049 12.8083 230.965L9.7536 187.219ZM15.96 259.152C16.2524 259.01 16.5885 258.98 16.9025 259.067C17.2165 259.155 17.4856 259.354 17.657 259.625L66.6778 341.252C66.7535 341.385 66.8011 341.532 66.8177 341.683C66.8343 341.834 66.8195 341.987 66.7743 342.133C66.7291 342.279 66.6543 342.414 66.5544 342.531C66.4545 342.647 66.3316 342.744 66.1929 342.813C65.7026 343.079 65.2327 343.379 64.7868 343.712C64.5889 343.85 64.3515 343.925 64.1079 343.925C63.8644 343.925 63.627 343.85 63.4291 343.712L29.1486 318.977C28.5949 318.592 28.1464 318.08 27.8421 317.486C27.5378 316.893 27.3871 316.236 27.403 315.572C27.4216 314.803 27.2809 314.038 26.9893 313.323C26.6977 312.608 26.2612 311.957 25.7059 311.411C25.0627 310.791 24.2834 310.322 23.427 310.039C22.6661 309.813 21.9897 309.375 21.4814 308.778C20.973 308.181 20.6549 307.452 20.5663 306.681L15.2812 260.145C15.2827 259.933 15.3478 259.726 15.4684 259.549C15.589 259.373 15.7599 259.235 15.96 259.152V259.152ZM29.8759 323.234L61.3442 345.934C61.5626 346.095 61.7129 346.328 61.7666 346.59C61.8202 346.851 61.7734 347.123 61.6351 347.353C60.6347 349.239 60.2139 351.366 60.4233 353.478C60.6327 355.591 61.4634 357.6 62.8155 359.264C64.1676 360.927 65.9836 362.175 68.045 362.855C70.1064 363.536 72.3256 363.622 74.4358 363.102C74.6876 363.031 74.9568 363.05 75.1961 363.153C75.4355 363.257 75.6298 363.44 75.7449 363.669L92.3761 395.829C92.6185 396.349 91.8912 396.822 91.5518 396.349L29.8759 323.234ZM111.432 412.192C111.101 412.134 110.796 411.982 110.554 411.754C110.313 411.527 110.145 411.235 110.074 410.915C109.839 409.898 109.318 408.965 108.571 408.219C107.94 407.611 107.176 407.151 106.336 406.872C105.496 406.594 104.602 406.504 103.722 406.611C103.109 406.703 102.482 406.601 101.932 406.32C101.383 406.039 100.939 405.595 100.667 405.051L78.6057 362.487C78.4859 362.256 78.4543 361.992 78.5165 361.74C78.5787 361.489 78.7306 361.267 78.9451 361.115C79.2427 360.888 79.5186 360.635 79.7694 360.359C79.7694 360.359 79.7694 360.359 80.0118 360.359L162.974 418.009C163.262 418.217 163.483 418.502 163.612 418.828C163.741 419.155 163.772 419.51 163.701 419.853C163.653 420.483 163.653 421.115 163.701 421.745C163.707 421.963 163.662 422.179 163.569 422.377C163.475 422.575 163.337 422.749 163.163 422.886C162.99 423.024 162.786 423.12 162.568 423.168C162.35 423.216 162.124 423.215 161.907 423.164L111.432 412.192ZM256.506 429.454C256.204 429.624 255.861 429.714 255.512 429.714C255.163 429.714 254.82 429.624 254.518 429.454C253.921 428.951 253.207 428.597 252.438 428.424C251.669 428.251 250.868 428.264 250.106 428.461C249.2 428.67 248.375 429.13 247.73 429.785C247.45 430.063 247.106 430.273 246.726 430.396C246.347 430.52 245.943 430.553 245.548 430.494L187.751 423.542C187.296 423.487 186.876 423.276 186.565 422.947C186.254 422.618 186.073 422.192 186.054 421.745C186.125 421.132 186.125 420.513 186.054 419.901C186.019 419.707 186.027 419.508 186.075 419.318C186.124 419.127 186.212 418.948 186.335 418.792C186.458 418.637 186.613 418.508 186.79 418.414C186.967 418.32 187.162 418.262 187.363 418.245L286.665 411.104C286.922 411.1 287.177 411.158 287.405 411.274C287.634 411.389 287.829 411.559 287.974 411.766C288.435 412.466 288.972 413.116 289.574 413.705V413.705C289.705 413.781 289.813 413.888 289.888 414.016C289.964 414.145 290.003 414.29 290.003 414.438C290.003 414.586 289.964 414.732 289.888 414.86C289.813 414.989 289.705 415.096 289.574 415.171L256.506 429.454ZM364.536 379.607L363.275 380.458C361.766 380.489 360.327 381.081 359.251 382.114C358.357 383.014 357.794 384.179 357.651 385.424L356.681 386.701L310.618 406.328C310.406 406.419 310.174 406.459 309.943 406.445C309.711 406.432 309.486 406.364 309.287 406.248C309.088 406.133 308.92 405.972 308.797 405.78C308.674 405.588 308.6 405.371 308.581 405.145C308.534 404.312 308.388 403.486 308.145 402.686C308.024 402.337 308.006 401.961 308.091 401.602C308.177 401.243 308.363 400.914 308.63 400.652L367.251 342.387C367.591 342.037 368.001 341.758 368.455 341.567C368.909 341.376 369.399 341.277 369.894 341.277C370.388 341.277 370.878 341.376 371.332 341.567C371.787 341.758 372.196 342.037 372.536 342.387C372.702 342.573 372.88 342.746 373.07 342.908C373.941 343.772 374.9 344.548 375.93 345.225C376.608 345.698 377.102 346.38 377.331 347.162C377.56 347.944 377.511 348.778 377.191 349.529L364.536 379.607ZM422.721 250.119C422.766 250.558 422.697 251.001 422.519 251.406C422.34 251.811 422.06 252.166 421.702 252.436C421.323 252.708 420.967 253.009 420.636 253.335C418.794 255.129 417.647 257.491 417.39 260.018C417.134 262.545 417.784 265.08 419.229 267.192C419.493 267.594 419.633 268.062 419.633 268.539C419.633 269.017 419.493 269.485 419.229 269.887L397.119 309.188C396.884 309.601 396.509 309.922 396.057 310.095C395.606 310.267 395.107 310.281 394.646 310.134C393.715 309.795 392.759 309.526 391.786 309.33C391.52 309.279 391.268 309.177 391.043 309.03C390.819 308.884 390.626 308.695 390.477 308.475C390.328 308.254 390.226 308.008 390.176 307.748C390.126 307.489 390.129 307.223 390.186 306.965L408.999 215.027C409.045 214.769 409.144 214.523 409.289 214.302C409.434 214.081 409.622 213.89 409.843 213.741C410.064 213.591 410.313 213.486 410.576 213.431C410.839 213.376 411.11 213.372 411.375 213.419C412.975 213.727 414.622 213.727 416.223 213.419C416.508 213.35 416.804 213.341 417.093 213.391C417.381 213.441 417.656 213.55 417.898 213.711C418.141 213.871 418.346 214.08 418.5 214.323C418.654 214.566 418.754 214.839 418.793 215.122L422.721 250.119ZM415.69 188.165C415.737 188.583 415.696 189.005 415.572 189.407C415.447 189.809 415.24 190.183 414.964 190.505C414.688 190.828 414.348 191.092 413.965 191.283C413.581 191.474 413.162 191.588 412.732 191.617C410.017 191.795 407.463 192.94 405.556 194.833L405.265 195.117L330.692 150.662C330.029 150.241 329.527 149.62 329.264 148.893C329.001 148.166 328.992 147.375 329.237 146.642C329.433 146.056 329.579 145.455 329.673 144.845C329.821 144.06 330.247 143.351 330.876 142.841C331.505 142.331 332.298 142.052 333.116 142.054H401.677C402.306 142.052 402.922 142.236 403.441 142.582C403.961 142.928 404.36 143.421 404.586 143.993C405.153 145.476 406.028 146.829 407.156 147.966C407.918 148.677 408.764 149.296 409.677 149.81C410.18 150.063 410.611 150.433 410.932 150.886C411.254 151.34 411.455 151.864 411.52 152.412L415.69 188.165ZM402.307 139.264H332.583C331.808 139.254 331.059 138.993 330.453 138.522C329.848 138.051 329.42 137.397 329.237 136.663C328.639 134.36 327.621 132.182 326.231 130.231C325.774 129.566 325.573 128.765 325.662 127.97C325.75 127.174 326.123 126.434 326.716 125.88L356.584 97.5044C356.77 97.3415 357.012 97.2515 357.263 97.2515C357.513 97.2515 357.755 97.3415 357.941 97.5044C359.914 99.2555 362.453 100.276 365.118 100.389C367.142 100.449 369.148 99.9929 370.936 99.0651C371.206 98.9338 371.512 98.8905 371.808 98.9416C372.105 98.9927 372.377 99.1354 372.585 99.3488L404.198 134.677C404.438 134.925 404.598 135.237 404.658 135.573C404.718 135.909 404.676 136.255 404.538 136.568C404.386 136.987 404.257 137.414 404.15 137.845C404.052 138.25 403.816 138.61 403.482 138.867C403.147 139.125 402.733 139.265 402.307 139.264V139.264Z" fill="white" fill-opacity="0.24"/>
<defs>
<linearGradient id="paint0_linear_1830_2038" x1="222.504" y1="220.241" x2="117.506" y2="320.673" gradientUnits="userSpaceOnUse">
<stop stop-color="#171420"/>
<stop offset="0.27" stop-color="#1A1422"/>
<stop offset="0.44" stop-color="#22152B"/>
<stop offset="0.58" stop-color="#311738"/>
<stop offset="0.71" stop-color="#46194C"/>
<stop offset="0.82" stop-color="#601C65"/>
<stop offset="0.93" stop-color="#812083"/>
<stop offset="1" stop-color="#9A239B"/>
</linearGradient>
<linearGradient id="paint1_linear_1830_2038" x1="220.156" y1="222.1" x2="333.565" y2="105.708" gradientUnits="userSpaceOnUse">
<stop stop-color="#171420"/>
<stop offset="0.2" stop-color="#171522"/>
<stop offset="0.32" stop-color="#18192B"/>
<stop offset="0.42" stop-color="#181F39"/>
<stop offset="0.5" stop-color="#19284D"/>
<stop offset="0.58" stop-color="#1B3467"/>
<stop offset="0.65" stop-color="#1C4287"/>
<stop offset="0.72" stop-color="#1E52AC"/>
<stop offset="0.78" stop-color="#2064D3"/>
</linearGradient>
</defs>
</svg>
