<svg width="88" height="40" viewBox="0 0 88 40" fill="none" xmlns="http://www.w3.org/2000/svg">
<path d="M51.102 28.4264V13.462H45.2402V11.3242H59.388V13.462H53.5177V28.4264H51.102Z" fill="white"/>
<path d="M63.8808 28.4264H61.4395V11.3242H73.4965V13.462H63.8808V28.4264ZM63.6371 19.4136H72.4533V21.5171H63.6371V19.4136Z" fill="white"/>
<path d="M78.3749 28.4264H75.9336V11.3242H87.9992V13.462H78.3749V28.4264ZM78.1312 19.4136H86.9474V21.5171H78.1312V19.4136Z" fill="white"/>
<path d="M9.31691 9.78125C6.60451 12.4931 5.08048 16.1713 5.08008 20.0068C5.07968 23.8424 6.60294 27.5209 9.31477 30.2333C12.0266 32.9457 15.7049 34.4698 19.5404 34.4702C23.3759 34.4706 27.0545 32.9473 29.7669 30.2355L9.31691 9.78125Z" fill="url(#paint0_linear_1830_2130)"/>
<path d="M9.33393 9.76421L9.24414 9.85827L29.6941 30.3082L29.7881 30.2184C32.4519 27.496 33.9342 23.8327 33.9135 20.024C33.8927 16.2152 32.3705 12.5684 29.6772 9.87513C26.984 7.18189 23.3371 5.65966 19.5284 5.63889C15.7196 5.61812 12.0564 7.1005 9.33393 9.76421Z" fill="url(#paint1_linear_1830_2130)"/>
<path d="M28.3946 2.30328C28.2813 2.18175 28.1395 2.09048 27.9819 2.03777C27.8244 1.98506 27.6562 1.97258 27.4926 2.00148C27.329 2.03037 27.1752 2.09972 27.0452 2.20321C26.9153 2.3067 26.8133 2.44104 26.7485 2.59401C26.7346 2.62373 26.7108 2.64768 26.6811 2.66172C26.6515 2.67577 26.6178 2.67904 26.586 2.67097L19.3176 0.922276C19.0397 0.819662 19.0055 0.785458 18.9585 0.738427C18.8958 0.50132 18.7475 0.295839 18.5422 0.16165C18.3369 0.0274616 18.0892 -0.0259193 17.8469 0.0118122C17.6045 0.0495437 17.3848 0.175712 17.23 0.365962C17.0752 0.556211 16.9964 0.797052 17.0088 1.04199L16.9019 1.20019L12.357 3.11563C12.307 3.13796 12.2509 3.1425 12.198 3.1285C12.1451 3.11449 12.0986 3.08279 12.0663 3.03867C11.988 2.93026 11.8874 2.83987 11.7713 2.77359C11.5976 2.67021 11.3965 2.62235 11.1949 2.63641C10.9933 2.65047 10.8008 2.72578 10.6431 2.85226C10.4855 2.97874 10.3703 3.15036 10.3128 3.34413C10.2554 3.53791 10.2586 3.7446 10.3218 3.93654C10.3329 3.97133 10.3312 4.00892 10.3171 4.0426C10.303 4.07628 10.2774 4.10385 10.2449 4.12039L6.64488 6.15555C6.62278 6.16831 6.59771 6.17502 6.57219 6.17502C6.54667 6.17502 6.52161 6.16831 6.49951 6.15555C6.39958 6.09141 6.28175 6.06096 6.16326 6.06865C6.04477 6.07635 5.93186 6.12178 5.84107 6.1983C5.79099 6.25676 5.75339 6.32485 5.7306 6.39838C5.70781 6.4719 5.7003 6.54932 5.70853 6.62586C5.72235 6.7163 5.75915 6.80169 5.81542 6.87384C5.82899 6.89644 5.83615 6.9223 5.83615 6.94866C5.83615 6.97502 5.82899 7.00088 5.81542 7.02348L4.03252 10.8544C4.02379 10.8737 4.01128 10.8911 3.99572 10.9054C3.98015 10.9198 3.96186 10.9309 3.94192 10.9381C3.92198 10.9453 3.9008 10.9484 3.87964 10.9472C3.85848 10.9461 3.83777 10.9407 3.81874 10.9313C3.61839 10.8461 3.39562 10.8288 3.18452 10.8821C2.97342 10.9355 2.78561 11.0565 2.64982 11.2267C2.51404 11.3969 2.43776 11.6069 2.43266 11.8246C2.42756 12.0423 2.49392 12.2557 2.62158 12.4321C2.68373 12.5199 2.76036 12.5965 2.84819 12.6587C2.87487 12.6783 2.89288 12.7076 2.89846 12.7403C2.90404 12.773 2.89675 12.8065 2.87812 12.834L0.928468 15.737C0.907877 15.7676 0.879736 15.7923 0.846774 15.8088C0.813812 15.8253 0.777149 15.833 0.740344 15.8311C0.660266 15.8242 0.579687 15.8364 0.505317 15.8669C0.430946 15.8974 0.364938 15.9452 0.312789 16.0064C0.238853 16.0977 0.198514 16.2117 0.198514 16.3292C0.198514 16.4467 0.238853 16.5607 0.312789 16.652C0.368649 16.7239 0.44235 16.7799 0.526566 16.8145C0.55385 16.825 0.577586 16.843 0.595001 16.8665C0.612415 16.8899 0.622787 16.9179 0.624904 16.947L0.919917 21.3081C0.923138 21.3693 0.905409 21.4297 0.869654 21.4795C0.833899 21.5292 0.782255 21.5653 0.723241 21.5817C0.514327 21.6355 0.329286 21.7574 0.197349 21.928C0.0891109 22.0733 0.022537 22.2454 0.00479124 22.4257C-0.0129545 22.6059 0.0187998 22.7877 0.096637 22.9513C0.174474 23.1148 0.295447 23.2541 0.446539 23.3541C0.59763 23.454 0.773119 23.5109 0.954121 23.5185C0.98763 23.5183 1.02007 23.5303 1.04529 23.5524C1.07051 23.5745 1.08675 23.605 1.09094 23.6383L1.57408 28.025C1.5776 28.0522 1.57563 28.0798 1.56829 28.1063C1.56094 28.1327 1.54837 28.1574 1.53132 28.1789C1.48328 28.2382 1.44787 28.3068 1.42729 28.3803C1.4067 28.4538 1.40136 28.5308 1.4116 28.6065C1.41861 28.6859 1.44587 28.7622 1.49079 28.828C1.5357 28.8939 1.59676 28.9472 1.66814 28.9827C1.74895 29.0276 1.84095 29.0484 1.93322 29.0426C1.98965 29.0392 2.04608 29.049 2.09803 29.0713C2.14999 29.0936 2.19603 29.1276 2.23251 29.1708L8.64583 36.9823C8.66894 37.0123 8.68545 37.0468 8.69429 37.0837C8.70313 37.1205 8.7041 37.1588 8.69714 37.196C8.68051 37.2973 8.69464 37.4013 8.73772 37.4945C8.7808 37.5876 8.85084 37.6657 8.93878 37.7187C9.02672 37.7716 9.12853 37.797 9.23103 37.7915C9.33353 37.786 9.43202 37.7498 9.51377 37.6877C9.54233 37.6668 9.56818 37.6424 9.59073 37.615C9.61297 37.5878 9.64238 37.5674 9.67563 37.5561C9.70888 37.5448 9.74463 37.543 9.77885 37.5509L14.3537 38.5728C14.45 38.5974 14.5346 38.6549 14.5931 38.7352C14.6657 38.8398 14.7588 38.9285 14.8668 38.996C14.9787 39.0673 15.1038 39.1155 15.2346 39.1379C15.3654 39.1604 15.4994 39.1566 15.6287 39.1267C15.758 39.0969 15.8801 39.0416 15.9879 38.9641C16.0956 38.8866 16.1869 38.7885 16.2563 38.6754C16.2778 38.6391 16.3096 38.61 16.3477 38.5917C16.3857 38.5734 16.4283 38.5668 16.4701 38.5728L21.4682 39.1671C21.5106 39.1724 21.5499 39.1917 21.5801 39.2219C21.6103 39.2521 21.6296 39.2914 21.6349 39.3338C21.6442 39.4055 21.6688 39.4744 21.7072 39.5356C21.7456 39.5969 21.7968 39.6491 21.8573 39.6887C21.9422 39.7471 22.0428 39.7784 22.1459 39.7784C22.2489 39.7784 22.3496 39.7471 22.4345 39.6887C22.5032 39.6412 22.5589 39.5771 22.5963 39.5023C22.6336 39.4276 22.6515 39.3446 22.6483 39.2611C22.6472 39.2247 22.6573 39.1888 22.6772 39.1583C22.6971 39.1277 22.7257 39.104 22.7594 39.0901L25.7523 37.7775C25.8647 37.7321 25.9868 37.7159 26.1072 37.7305C26.2539 37.7443 26.402 37.7259 26.5408 37.6764C26.6797 37.6269 26.8061 37.5476 26.911 37.444C26.96 37.394 27.0043 37.3396 27.0435 37.2815C27.0793 37.2236 27.1313 37.1775 27.1932 37.149L31.4687 35.2763L31.6568 35.3105C31.7085 35.3605 31.7695 35.3997 31.8364 35.4259C31.9487 35.4766 32.0754 35.4851 32.1935 35.45C32.3115 35.4149 32.413 35.3385 32.4794 35.2348C32.5458 35.1311 32.5726 35.0069 32.5551 34.885C32.5375 34.7631 32.4767 34.6516 32.3837 34.5708L32.3366 34.5324L33.4868 31.7319C33.5142 31.6632 33.5645 31.6061 33.6291 31.5703C33.6938 31.5344 33.7689 31.522 33.8416 31.5352C34.216 31.5995 34.601 31.544 34.942 31.3767C35.2829 31.2093 35.5624 30.9387 35.7405 30.6032C35.9186 30.2678 35.9864 29.8847 35.9341 29.5085C35.8818 29.1323 35.7121 28.7822 35.4492 28.5081C35.3921 28.4482 35.3306 28.3924 35.2654 28.3414C35.2318 28.3145 35.2086 28.2766 35.2 28.2345C35.1914 28.1923 35.1979 28.1484 35.2184 28.1105L37.1552 24.6387C37.1817 24.5891 37.2257 24.5512 37.2786 24.5322C37.3316 24.5132 37.3897 24.5146 37.4416 24.5361C37.5797 24.5897 37.7279 24.6119 37.8755 24.601C38.0232 24.5902 38.1666 24.5465 38.2953 24.4733C38.4239 24.4 38.5346 24.299 38.6194 24.1776C38.7041 24.0561 38.7607 23.9173 38.785 23.7713C38.8094 23.6253 38.8008 23.4756 38.7601 23.3333C38.7193 23.1909 38.6474 23.0595 38.5494 22.9485C38.4514 22.8374 38.33 22.7496 38.1938 22.6915C38.0577 22.6333 37.9103 22.6062 37.7623 22.6121C37.7041 22.6137 37.6473 22.5935 37.6031 22.5556C37.5589 22.5177 37.5303 22.4647 37.5229 22.4069L37.1552 19.1233C37.151 19.0974 37.1526 19.0709 37.16 19.0457C37.1674 19.0206 37.1804 18.9974 37.1979 18.9779C37.3872 18.7802 37.4916 18.5162 37.4887 18.2425C37.4796 18.1365 37.4537 18.0325 37.4117 17.9347C37.3268 17.7279 37.1933 17.5446 37.0226 17.4002C37.0015 17.3839 36.9841 17.3632 36.9716 17.3397C36.959 17.3161 36.9517 17.2901 36.95 17.2634L36.5823 13.9883C36.5743 13.9124 36.5948 13.8363 36.6399 13.7747C36.6849 13.713 36.7512 13.6703 36.826 13.6549C37.0373 13.6105 37.2281 13.4978 37.369 13.3342C37.5203 13.1515 37.6027 12.9215 37.6018 12.6843C37.6009 12.447 37.5169 12.2176 37.3643 12.036C37.2116 11.8544 37.0001 11.7321 36.7666 11.6904C36.5331 11.6487 36.2923 11.6903 36.0863 11.8078C36.0412 11.8404 35.9996 11.8776 35.9623 11.919C35.9515 11.9309 35.9383 11.9405 35.9236 11.947C35.9088 11.9535 35.8929 11.9569 35.8768 11.9569C35.8607 11.9569 35.8448 11.9535 35.83 11.947C35.8153 11.9405 35.8021 11.9309 35.7913 11.919L33.0678 8.79784C33.0511 8.77728 33.042 8.75161 33.042 8.72515C33.042 8.69869 33.0511 8.67303 33.0678 8.65247C33.1932 8.47361 33.2564 8.25846 33.2476 8.04016C33.2388 7.82185 33.1585 7.6125 33.019 7.44434C32.8795 7.27618 32.6886 7.15854 32.4757 7.10953C32.2628 7.06052 32.0396 7.08287 31.8407 7.17313C31.7986 7.19245 31.7515 7.19789 31.7062 7.18867C31.6608 7.17945 31.6196 7.15603 31.5884 7.12182L28.5613 3.74414C28.5356 3.70793 28.5217 3.66459 28.5217 3.62015C28.5217 3.5757 28.5356 3.53236 28.5613 3.49616C28.6676 3.30638 28.7088 3.08705 28.6787 2.87166C28.6486 2.65627 28.5488 2.45665 28.3946 2.30328ZM31.2678 8.60971L28.6041 11.2092C28.5546 11.2577 28.4905 11.2885 28.4218 11.297C28.353 11.3055 28.2834 11.2912 28.2236 11.2563C27.9897 11.1176 27.7276 11.0333 27.4567 11.0096C27.1859 10.9859 26.9131 11.0234 26.6587 11.1195C26.5879 11.1469 26.5095 11.1473 26.4385 11.1205C26.3674 11.0936 26.3088 11.0415 26.2739 10.9741L22.8535 4.32989C22.8345 4.29128 22.8284 4.24759 22.8361 4.20526C22.8438 4.16293 22.8649 4.12419 22.8962 4.09473C23.0591 3.92987 23.1603 3.71398 23.1827 3.48333C23.1858 3.4523 23.2001 3.42347 23.2229 3.40223C23.2457 3.38098 23.2755 3.36877 23.3067 3.36789L26.4663 3.17549C26.5201 3.17267 26.5734 3.18684 26.6187 3.216C26.664 3.24516 26.6989 3.28783 26.7186 3.33796C26.7682 3.46603 26.8437 3.58248 26.9404 3.67997C27.0371 3.77746 27.153 3.85391 27.2806 3.90449C27.4083 3.95508 27.5451 3.97873 27.6823 3.97394C27.8196 3.96915 27.9544 3.93604 28.0782 3.87668C28.1195 3.857 28.166 3.85136 28.2108 3.86063C28.2556 3.86989 28.2961 3.89355 28.3262 3.92799L31.3447 7.29712C31.3735 7.3345 31.3891 7.38035 31.3891 7.42752C31.3891 7.4747 31.3735 7.52055 31.3447 7.55793C31.2658 7.68916 31.2175 7.83652 31.2034 7.98902C31.1893 8.14152 31.2099 8.29523 31.2635 8.43869C31.2816 8.46334 31.2917 8.49295 31.2925 8.52353C31.2932 8.55411 31.2846 8.58418 31.2678 8.60971ZM21.0962 3.53891C21.1264 3.53709 21.1562 3.54594 21.1804 3.56393C21.2047 3.58192 21.2218 3.60788 21.2288 3.63725C21.2979 3.87688 21.4544 4.08186 21.6674 4.21169C21.8803 4.34152 22.1342 4.38675 22.3789 4.33844C22.4209 4.32921 22.4647 4.3343 22.5035 4.3529C22.5422 4.37149 22.5736 4.40253 22.5927 4.44105L26.0687 11.1494C26.1004 11.2092 26.1122 11.2776 26.1022 11.3445C26.0922 11.4115 26.0609 11.4735 26.0131 11.5214C25.9107 11.6221 25.8216 11.7357 25.748 11.8591C25.7147 11.9132 25.6659 11.9559 25.6079 11.9818C25.55 12.0078 25.4856 12.0157 25.4231 12.0045L14.8539 9.96506C14.809 9.95695 14.7685 9.93316 14.7395 9.89791C14.7105 9.86267 14.695 9.81828 14.6957 9.77266C14.6912 9.51557 14.5869 9.2703 14.405 9.08857C14.3078 8.99256 14.1921 8.91729 14.065 8.86731C13.9378 8.81734 13.8019 8.7937 13.6653 8.79784C13.6249 8.79957 13.585 8.78852 13.5512 8.76626C13.5174 8.744 13.4915 8.71166 13.4772 8.67384L11.861 4.50091C11.8555 4.48378 11.8549 4.46541 11.8594 4.44798C11.864 4.43055 11.8735 4.41479 11.8867 4.40257L11.9679 4.33416C12.086 4.21605 12.1702 4.06839 12.2116 3.90661C12.2191 3.89102 12.2305 3.87768 12.2448 3.86792C12.2591 3.85816 12.2756 3.85234 12.2929 3.85103L21.0962 3.53891ZM19.0824 1.14033L26.1884 2.85055C26.194 2.85277 26.1987 2.8566 26.2021 2.86156C26.2054 2.86651 26.2072 2.87236 26.2072 2.87834C26.2072 2.88432 26.2054 2.89017 26.2021 2.89512C26.1987 2.90007 26.194 2.90391 26.1884 2.90613L23.2768 3.06433C23.2411 3.06726 23.2054 3.05894 23.1747 3.04053C23.1441 3.02212 23.1199 2.99456 23.1057 2.96171C23.0468 2.82987 22.9609 2.71188 22.8535 2.61539C22.7048 2.48898 22.5228 2.40837 22.3292 2.38333C22.1357 2.35829 21.9391 2.38989 21.7632 2.4743C21.5828 2.55702 21.4331 2.6947 21.3357 2.86765L18.8644 1.71325L18.8174 1.55078C18.887 1.45114 18.9377 1.33955 18.967 1.22156C19.012 1.20523 19.0519 1.17719 19.0824 1.14033ZM28.7452 26.7936L26.6373 35.5713C26.6251 35.6201 26.5951 35.6625 26.5531 35.6902C26.5112 35.7179 26.4604 35.7289 26.4107 35.721C26.2511 35.6883 26.0859 35.6959 25.9299 35.7429C25.774 35.7899 25.6321 35.8749 25.5171 35.9903C25.4562 36.0493 25.4043 36.117 25.3632 36.1913C25.3417 36.2287 25.3065 36.2562 25.265 36.2682C25.2235 36.2801 25.1791 36.2756 25.1409 36.2554L17.2995 32.2236C17.2795 32.2132 17.2619 32.1986 17.2482 32.1807C17.2344 32.1629 17.2247 32.1422 17.2198 32.1201C17.2149 32.0981 17.2149 32.0753 17.2198 32.0532C17.2247 32.0312 17.2344 32.0105 17.2482 31.9927L17.3209 31.873C17.4063 31.7053 17.4447 31.5177 17.4321 31.33C17.4302 31.2944 17.4385 31.2591 17.4559 31.2281C17.4733 31.1971 17.4991 31.1716 17.5304 31.1547L27.7917 26.1523C27.7998 26.1479 27.8087 26.1452 27.8179 26.1443C27.8271 26.1434 27.8364 26.1444 27.8451 26.1472C27.8539 26.15 27.8621 26.1545 27.869 26.1606C27.876 26.1666 27.8817 26.1739 27.8858 26.1822C27.9309 26.2637 27.987 26.3385 28.0525 26.4045C28.2179 26.5692 28.4358 26.6706 28.6682 26.691C28.68 26.6888 28.6921 26.6898 28.7034 26.6938C28.7147 26.6978 28.7247 26.7047 28.7325 26.7138C28.7403 26.7229 28.7456 26.7338 28.7478 26.7456C28.75 26.7573 28.7491 26.7695 28.7452 26.7808V26.7936ZM14.1314 10.8715L17.7228 18.234C17.7695 18.3272 17.7805 18.4343 17.7537 18.5351C17.7269 18.6359 17.6643 18.7234 17.5775 18.7812C17.3757 18.9195 17.2047 19.098 17.0752 19.3055C16.9457 19.5129 16.8605 19.745 16.825 19.9869C16.8122 20.0959 16.7631 20.1974 16.6855 20.275C16.6079 20.3526 16.5064 20.4018 16.3974 20.4145L8.17125 21.1242C8.14997 21.1262 8.12858 21.122 8.10962 21.1122C8.09066 21.1023 8.07495 21.0872 8.06436 21.0687C8.02036 20.9865 7.96414 20.9116 7.89761 20.8463L7.86341 20.8164L13.5584 10.8843C13.5767 10.8551 13.6018 10.8309 13.6316 10.8137C13.6615 10.7966 13.6951 10.7871 13.7295 10.786C13.7906 10.7923 13.8522 10.7923 13.9133 10.786C13.954 10.775 13.9972 10.7773 14.0365 10.7927C14.0757 10.8081 14.109 10.8357 14.1314 10.8715ZM27.749 25.8829L17.4877 30.881C17.4477 30.9004 17.4022 30.905 17.3591 30.8941C17.3161 30.8831 17.2783 30.8573 17.2525 30.8212C17.2208 30.7792 17.1865 30.7392 17.1499 30.7015C17.076 30.6304 16.9925 30.57 16.9019 30.5219C16.8631 30.5029 16.8316 30.4717 16.8123 30.4331C16.793 30.3945 16.7869 30.3505 16.795 30.3081L18.176 22.9542C18.2182 22.7256 18.3268 22.5144 18.4881 22.347C18.6582 22.1881 18.8611 22.0684 19.0824 21.9965C19.3148 21.8951 19.5332 21.7643 19.7323 21.6074C19.8422 21.5226 19.9729 21.4692 20.1106 21.4526C20.2483 21.436 20.388 21.457 20.5148 21.5133L28.0825 24.844C28.0922 24.8506 28.1001 24.8596 28.1056 24.87C28.1111 24.8804 28.1139 24.892 28.1139 24.9038C28.1139 24.9156 28.1111 24.9272 28.1056 24.9376C28.1001 24.9481 28.0922 24.957 28.0825 24.9637L28.0483 24.9936C27.943 25.0991 27.8627 25.2268 27.8131 25.3674C27.7636 25.5079 27.746 25.6578 27.7618 25.806C27.7678 25.8186 27.7697 25.8327 27.7674 25.8465C27.7651 25.8602 27.7587 25.8729 27.749 25.8829ZM7.89761 22.2359C7.99542 22.1391 8.07183 22.0229 8.12191 21.8948C8.17199 21.7666 8.19463 21.6294 8.18835 21.4919C8.18657 21.477 8.18785 21.4618 8.19211 21.4474C8.19636 21.433 8.2035 21.4196 8.2131 21.408C8.22269 21.3964 8.23454 21.3868 8.24792 21.38C8.26131 21.3731 8.27595 21.369 8.29096 21.3679L16.4444 20.6411C16.5512 20.6336 16.6577 20.6596 16.7489 20.7156C16.8401 20.7715 16.9116 20.8546 16.9532 20.9532C17.0437 21.1622 17.1728 21.3522 17.3337 21.5133C17.4453 21.6258 17.5719 21.7222 17.71 21.7998C17.8153 21.8616 17.8991 21.9541 17.9503 22.0649C18.0015 22.1757 18.0176 22.2995 17.9965 22.4197L16.5385 30.2012C16.5281 30.2573 16.5001 30.3087 16.4586 30.3479C16.4171 30.3871 16.3642 30.4121 16.3076 30.4193C16.2025 30.4362 16.1003 30.4679 16.0041 30.5133C15.944 30.5415 15.8765 30.55 15.8113 30.5378C15.7461 30.5255 15.6864 30.493 15.6406 30.4449L7.7779 22.5181C7.76534 22.5076 7.75523 22.4946 7.74829 22.4798C7.74136 22.465 7.73776 22.4489 7.73776 22.4326C7.73776 22.4162 7.74136 22.4001 7.74829 22.3853C7.75523 22.3705 7.76534 22.3575 7.7779 22.347C7.82183 22.3146 7.86198 22.2773 7.89761 22.2359ZM28.5314 24.7157C28.524 24.7189 28.516 24.7205 28.5079 24.7205C28.4998 24.7205 28.4918 24.7189 28.4844 24.7157L20.7884 21.3252C20.647 21.2617 20.531 21.1527 20.4589 21.0155C20.3868 20.8783 20.3628 20.7209 20.3908 20.5684C20.4399 20.172 20.3793 19.7697 20.2155 19.4055C20.1806 19.3343 20.1406 19.2657 20.0958 19.2002C20.0263 19.1036 19.9977 18.9834 20.0161 18.8658C20.0345 18.7482 20.0984 18.6426 20.1941 18.5717L25.9404 14.2962C25.9932 14.2598 26.0559 14.2403 26.12 14.2403C26.1841 14.2403 26.2468 14.2598 26.2996 14.2962C26.4318 14.3875 26.5756 14.4608 26.7271 14.5142C26.7816 14.5307 26.8303 14.5624 26.8674 14.6056C26.9045 14.6488 26.9285 14.7016 26.9366 14.7579L28.6041 24.6516C28.6061 24.6619 28.6057 24.6726 28.6029 24.6828C28.6001 24.693 28.595 24.7024 28.5879 24.7102C28.5809 24.7181 28.5721 24.7242 28.5623 24.7281C28.5525 24.7321 28.5419 24.7337 28.5314 24.7328V24.7157ZM25.6753 14.1636L19.882 18.4734C19.7907 18.5416 19.6838 18.5859 19.5711 18.6024C19.4584 18.6188 19.3433 18.6068 19.2364 18.5675C19.0003 18.4793 18.7481 18.4429 18.4967 18.4606C18.3906 18.4672 18.2849 18.4419 18.1935 18.3877C18.102 18.3336 18.0289 18.2532 17.9836 18.157L14.3622 10.7261C14.3432 10.6889 14.3371 10.6465 14.3448 10.6055C14.3526 10.5645 14.3737 10.5272 14.405 10.4995C14.4604 10.444 14.5092 10.3823 14.5504 10.3157C14.5714 10.2816 14.6023 10.2547 14.6389 10.2387C14.6756 10.2226 14.7163 10.2182 14.7556 10.2259L25.2478 12.2525C25.3248 12.269 25.3929 12.3136 25.4388 12.3777C25.4846 12.4417 25.505 12.5206 25.4958 12.5988C25.4478 13.0016 25.5383 13.4087 25.7523 13.7532C25.7934 13.8188 25.8083 13.8974 25.7941 13.9735C25.7798 14.0495 25.7374 14.1174 25.6753 14.1636ZM11.6259 4.642L13.2121 8.73798C13.2286 8.7796 13.2303 8.82558 13.2171 8.86833C13.2039 8.91108 13.1765 8.94805 13.1394 8.97313C13.0887 9.00687 13.0414 9.04553 12.9983 9.08857C12.9037 9.18142 12.829 9.29267 12.779 9.41547C12.729 9.53828 12.7047 9.67003 12.7076 9.80259C12.7085 9.84984 12.6927 9.89589 12.663 9.93264C12.6332 9.9694 12.5915 9.9945 12.5451 10.0035L4.46862 11.547C4.44322 11.5518 4.41695 11.5476 4.39432 11.5351C4.37169 11.5226 4.35412 11.5026 4.34463 11.4786C4.33654 11.4594 4.33425 11.4382 4.33805 11.4177C4.34185 11.3972 4.35157 11.3782 4.36601 11.3632L10.6211 4.47953C10.6363 4.46739 10.6552 4.46077 10.6746 4.46077C10.694 4.46077 10.7129 4.46739 10.728 4.47953C10.8448 4.55415 10.9759 4.60337 11.1129 4.624C11.2499 4.64462 11.3897 4.63619 11.5233 4.59925C11.5427 4.59298 11.5637 4.59384 11.5825 4.60168C11.6013 4.60951 11.6167 4.62382 11.6259 4.642ZM4.59689 11.7822L12.6691 10.2643C12.7069 10.2561 12.7463 10.2595 12.7821 10.274C12.818 10.2885 12.8486 10.3134 12.8701 10.3456C12.9042 10.4047 12.9475 10.4581 12.9983 10.5038C13.0532 10.5581 13.1134 10.6068 13.1779 10.6491C13.2197 10.6764 13.2495 10.7185 13.2614 10.7669C13.2733 10.8153 13.2664 10.8665 13.242 10.91L7.68383 20.5812C7.6703 20.6052 7.64864 20.6236 7.62277 20.633C7.59689 20.6424 7.56851 20.6422 7.54274 20.6326C7.39375 20.5724 7.23174 20.5518 7.07243 20.5727C7.04617 20.5753 7.01978 20.5692 6.99735 20.5553C6.97493 20.5414 6.95773 20.5204 6.94844 20.4957L4.18216 12.6758C4.1686 12.6398 4.16424 12.601 4.16947 12.5629C4.17469 12.5249 4.18934 12.4887 4.21209 12.4577C4.32022 12.317 4.38951 12.1504 4.41304 11.9746C4.42009 11.9274 4.44154 11.8837 4.47445 11.8492C4.50737 11.8148 4.55014 11.7913 4.59689 11.7822ZM3.71612 12.7997C3.76887 12.7833 3.82594 12.7879 3.87536 12.8126C3.92478 12.8373 3.96272 12.8802 3.98121 12.9323L6.70046 20.577C6.70998 20.601 6.71046 20.6277 6.70181 20.6521C6.69316 20.6764 6.67597 20.6968 6.65343 20.7095C6.59313 20.7491 6.53724 20.7949 6.48668 20.8463C6.32293 21.0088 6.22153 21.2237 6.20022 21.4535C6.19632 21.4786 6.1848 21.5019 6.16721 21.5203C6.14962 21.5386 6.12681 21.5511 6.10188 21.5561L1.99735 22.082C1.95454 22.086 1.91142 22.0786 1.87237 22.0606C1.83332 22.0426 1.79974 22.0146 1.77503 21.9794C1.7451 21.9283 1.70922 21.8809 1.66814 21.8383C1.60625 21.7746 1.53573 21.7199 1.45864 21.6758C1.41503 21.6497 1.38105 21.6102 1.36179 21.5632C1.34252 21.5162 1.33899 21.4642 1.35175 21.415L3.57931 12.9408C3.58849 12.9078 3.60583 12.8775 3.62973 12.8529C3.65363 12.8282 3.68334 12.8099 3.71612 12.7997ZM1.77503 23.091C1.89177 22.9216 1.95166 22.7195 1.94605 22.5138C1.94646 22.4717 1.96168 22.431 1.98904 22.399C2.01639 22.3669 2.05415 22.3455 2.09569 22.3385L6.14036 21.8083C6.16604 21.8059 6.19179 21.8122 6.21349 21.8262C6.23519 21.8401 6.25159 21.8609 6.26008 21.8853C6.31449 22.0277 6.40047 22.1559 6.51154 22.2603C6.62262 22.3647 6.75591 22.4426 6.90141 22.4881C6.92577 22.4966 6.94658 22.513 6.96053 22.5347C6.97448 22.5564 6.98076 22.5822 6.97837 22.6079L6.37124 30.787C6.37014 30.8123 6.35929 30.8362 6.34097 30.8538C6.32264 30.8713 6.29826 30.8811 6.2729 30.881C6.25508 30.8821 6.2373 30.8783 6.22148 30.87C6.20567 30.8617 6.1924 30.8493 6.18312 30.834L1.76648 23.2962C1.74732 23.265 1.73789 23.2289 1.73942 23.1923C1.74094 23.1557 1.75334 23.1205 1.77503 23.091ZM7.33324 22.5266C7.35016 22.5229 7.36778 22.5237 7.3843 22.5289C7.40082 22.5342 7.41565 22.5437 7.4273 22.5565L15.4995 30.6801C15.5313 30.7121 15.5521 30.7533 15.559 30.7978C15.5659 30.8424 15.5586 30.888 15.538 30.9281C15.4921 31.0166 15.4604 31.1119 15.444 31.2103C15.431 31.2801 15.3939 31.3431 15.3392 31.3884C15.2845 31.4337 15.2157 31.4584 15.1447 31.4582L7.26911 31.4155C7.25135 31.4161 7.23374 31.4121 7.218 31.4038C7.20226 31.3956 7.18893 31.3834 7.17932 31.3685C7.07039 31.1745 6.8984 31.0236 6.69191 30.9409C6.6721 30.9327 6.65554 30.9182 6.64473 30.8997C6.63392 30.8811 6.62947 30.8596 6.63205 30.8383L7.24773 22.6634C7.24513 22.6336 7.25378 22.6039 7.27198 22.5802C7.29018 22.5565 7.31661 22.5404 7.34607 22.5352L7.33324 22.5266ZM7.40165 31.6763L15.3499 31.7533C15.3925 31.754 15.4341 31.7664 15.4703 31.789C15.5064 31.8116 15.5357 31.8435 15.5551 31.8815C15.603 31.9648 15.6604 32.0423 15.7261 32.1124L15.7518 32.1338C15.8036 32.1806 15.8431 32.2393 15.867 32.3049C15.8908 32.3705 15.8982 32.4409 15.8886 32.51L15.4012 36.9523C15.3954 37.0061 15.3723 37.0565 15.3352 37.0958C15.2982 37.1352 15.2493 37.1614 15.196 37.1704C15.0108 37.2109 14.8414 37.3045 14.7086 37.4397L14.6701 37.4782C14.6372 37.5077 14.5945 37.5239 14.5504 37.5239C14.5062 37.5239 14.4636 37.5077 14.4306 37.4782L7.26911 32.3476C7.24947 32.3344 7.2352 32.3147 7.22892 32.2919C7.22264 32.2692 7.22476 32.2449 7.2349 32.2236C7.29415 32.0787 7.32043 31.9224 7.31186 31.7661C7.31683 31.7427 7.3298 31.7218 7.34854 31.707C7.36727 31.6922 7.39059 31.6843 7.41447 31.6848L7.40165 31.6763ZM15.6706 36.9566L16.1494 32.681C16.1597 32.6017 16.1981 32.5286 16.2578 32.4752C16.3175 32.4218 16.3943 32.3917 16.4744 32.3903C16.5707 32.3903 16.6663 32.3729 16.7565 32.339C16.8281 32.3113 16.9074 32.3113 16.9789 32.339L25.1837 36.5718C25.2016 36.58 25.2169 36.5933 25.2275 36.61C25.2381 36.6267 25.2437 36.6461 25.2435 36.6659C25.2414 36.7043 25.2414 36.7428 25.2435 36.7813C25.2453 36.7971 25.2438 36.8132 25.239 36.8284C25.2343 36.8437 25.2265 36.8577 25.216 36.8698C25.2056 36.8818 25.1928 36.8916 25.1784 36.8984C25.164 36.9053 25.1483 36.9091 25.1323 36.9096L16.376 37.5509C16.3371 37.5555 16.2977 37.5505 16.2612 37.5364C16.2246 37.5222 16.1921 37.4993 16.1665 37.4697L16.1323 37.4397C16.0518 37.3555 15.956 37.2874 15.8501 37.2388C15.7936 37.2176 15.7455 37.1786 15.7131 37.1277C15.6807 37.0768 15.6658 37.0168 15.6706 36.9566ZM26.8554 35.8107L29.0316 26.691C29.0352 26.6795 29.0413 26.6689 29.0494 26.6601C29.0575 26.6512 29.0675 26.6442 29.0787 26.6397C29.2222 26.5923 29.3526 26.5117 29.4592 26.4045C29.5014 26.3606 29.5582 26.3337 29.6189 26.3289C29.6796 26.3242 29.74 26.342 29.7884 26.3789L32.4649 28.491C32.5281 28.5401 32.5718 28.61 32.5882 28.6883C32.6047 28.7666 32.5928 28.8482 32.5547 28.9186C32.3494 29.3363 32.3127 29.817 32.4521 30.2611C32.4686 30.3166 32.4702 30.3755 32.4566 30.4318C32.4431 30.4881 32.415 30.5398 32.3751 30.5818L27.0606 35.9946C27.0522 36.0038 27.042 36.0112 27.0306 36.0162C27.0191 36.0212 27.0068 36.0238 26.9943 36.0238C26.9819 36.0238 26.9695 36.0212 26.9581 36.0162C26.9467 36.0112 26.9365 36.0038 26.9281 35.9946C26.8989 35.9748 26.8763 35.9467 26.8633 35.9139C26.8504 35.8811 26.8476 35.8451 26.8554 35.8107ZM34.111 27.7941C34.1026 27.8316 34.083 27.8656 34.0547 27.8916C34.0264 27.9176 33.9909 27.9343 33.9528 27.9395C33.547 27.9861 33.1689 28.1684 32.8796 28.4568L29.844 26.0839C29.8105 26.0573 29.7845 26.0224 29.7687 25.9826C29.753 25.9428 29.748 25.8996 29.7542 25.8573C29.7776 25.7026 29.7643 25.5446 29.7152 25.396C29.6662 25.2475 29.5829 25.1125 29.472 25.0022L35.4578 19.5722C35.4864 19.5465 35.5224 19.5304 35.5606 19.5262C35.5989 19.5219 35.6375 19.5298 35.671 19.5487C35.7045 19.5676 35.7313 19.5965 35.7475 19.6314C35.7637 19.6663 35.7685 19.7054 35.7614 19.7432L34.111 27.7941ZM35.5647 19.0463L29.3822 24.6772C29.3407 24.7164 29.2895 24.7438 29.2339 24.7566C29.1783 24.7693 29.1203 24.767 29.0658 24.7499C29.0069 24.7331 28.954 24.6995 28.9138 24.6532C28.8736 24.6069 28.8477 24.5499 28.8392 24.4891L27.253 14.9675C27.2464 14.9264 27.248 14.8844 27.2577 14.844C27.2675 14.8036 27.2853 14.7656 27.31 14.7321C27.3347 14.6986 27.3658 14.6705 27.4015 14.6492C27.4373 14.6279 27.4769 14.614 27.5181 14.6083C27.9124 14.5552 28.2786 14.3751 28.5613 14.0952L28.6725 13.9755C28.7196 13.9171 28.7861 13.8777 28.8599 13.8643C28.9337 13.851 29.0099 13.8646 29.0744 13.9028L35.3723 17.7508C35.4237 17.7827 35.4634 17.8302 35.4858 17.8864C35.5081 17.9426 35.5118 18.0045 35.4963 18.0629C35.4302 18.3175 35.4671 18.5878 35.5989 18.8154C35.6211 18.8526 35.6298 18.8963 35.6236 18.9391C35.6174 18.9819 35.5966 19.0213 35.5647 19.0506V19.0463ZM16.9746 1.46099L17.1499 1.51658C17.1897 1.58554 17.2386 1.64882 17.2953 1.7047C17.4423 1.85248 17.6321 1.95018 17.8378 1.98395C18.0435 2.01772 18.2546 1.98584 18.4411 1.89282H18.5779L21.1433 3.08998C21.1616 3.09825 21.1766 3.11245 21.1859 3.13028C21.1952 3.14811 21.1983 3.16855 21.1946 3.18832C21.19 3.20915 21.1787 3.22792 21.1625 3.2418C21.1463 3.25568 21.1261 3.26392 21.1048 3.26528L12.357 3.59877C12.3353 3.59899 12.3142 3.59131 12.2977 3.57716C12.2811 3.563 12.2703 3.54334 12.2672 3.52181C12.2651 3.50388 12.2689 3.48574 12.2782 3.47025C12.2875 3.45477 12.3017 3.44282 12.3185 3.4363L16.9746 1.46099ZM6.0463 7.21161C6.06444 7.17212 6.09247 7.13799 6.12767 7.11252C6.16288 7.08705 6.20407 7.07111 6.24725 7.06624C6.36712 7.05879 6.47991 7.00697 6.56364 6.92087C6.61066 6.87533 6.64812 6.82087 6.67382 6.76066C6.69952 6.70046 6.71293 6.63573 6.71328 6.57027C6.71441 6.52603 6.72677 6.4828 6.74921 6.44466C6.77165 6.40651 6.80343 6.3747 6.84155 6.35222L10.1765 4.4667C10.1801 4.4639 10.1843 4.46184 10.1887 4.46064C10.1932 4.45944 10.1978 4.45913 10.2024 4.45973C10.207 4.46032 10.2114 4.46181 10.2154 4.46411C10.2193 4.46641 10.2228 4.46947 10.2256 4.47312C10.2285 4.47677 10.2305 4.48094 10.2317 4.48538C10.2329 4.48983 10.2332 4.49447 10.2326 4.49903C10.232 4.5036 10.2305 4.508 10.2282 4.51199C10.2259 4.51598 10.2229 4.51948 10.2192 4.52229L4.34891 10.9655C4.34341 10.9703 4.33653 10.9732 4.32927 10.9738C4.32202 10.9744 4.31476 10.9727 4.30856 10.9688C4.30236 10.965 4.29754 10.9593 4.2948 10.9526C4.29206 10.9458 4.29154 10.9384 4.29332 10.9313L6.0463 7.21161ZM0.860059 16.9257C0.858745 16.8963 0.86565 16.8671 0.880001 16.8414C0.894351 16.8157 0.915577 16.7946 0.941294 16.7803C0.980625 16.7585 1.01662 16.7311 1.04818 16.699C1.12751 16.6187 1.17839 16.5147 1.19305 16.4027C1.20772 16.2908 1.18537 16.1771 1.12942 16.0791C1.11389 16.0541 1.10567 16.0252 1.10567 15.9957C1.10567 15.9663 1.11389 15.9374 1.12942 15.9123L3.18596 12.8553C3.19234 12.8435 3.20278 12.8344 3.21535 12.8297C3.22793 12.825 3.24179 12.825 3.25437 12.8297C3.26333 12.8311 3.27189 12.8345 3.27947 12.8395C3.28704 12.8445 3.29347 12.8511 3.29832 12.8587C3.30317 12.8664 3.30633 12.875 3.3076 12.884C3.30887 12.893 3.30821 12.9022 3.30567 12.9109L1.2021 20.8805C1.19948 20.8881 1.19457 20.8946 1.18805 20.8993C1.18154 20.9039 1.17375 20.9064 1.16576 20.9064C1.15777 20.9064 1.14998 20.9039 1.14347 20.8993C1.13695 20.8946 1.13204 20.8881 1.12942 20.8805L0.860059 16.9257ZM1.40733 23.4288C1.43311 23.4159 1.46275 23.4132 1.49044 23.4211C1.51812 23.429 1.54186 23.447 1.55697 23.4715L5.87955 30.8511C5.88623 30.8631 5.89043 30.8764 5.89189 30.8901C5.89335 30.9037 5.89205 30.9176 5.88806 30.9307C5.88407 30.9439 5.87748 30.9561 5.86867 30.9667C5.85987 30.9772 5.84903 30.9859 5.8368 30.9922C5.79356 31.0163 5.75212 31.0434 5.71281 31.0734C5.69536 31.086 5.67443 31.0927 5.65295 31.0927C5.63147 31.0927 5.61054 31.086 5.59309 31.0734L2.57028 28.8373C2.52146 28.8025 2.48191 28.7562 2.45508 28.7025C2.42825 28.6489 2.41495 28.5895 2.41636 28.5295C2.418 28.4599 2.40559 28.3908 2.37988 28.3261C2.35416 28.2615 2.31568 28.2027 2.26671 28.1532C2.21 28.0972 2.14128 28.0548 2.06576 28.0293C1.99867 28.0088 1.93902 27.9692 1.8942 27.9152C1.84937 27.8613 1.82132 27.7954 1.81351 27.7257L1.34747 23.5185C1.34761 23.4994 1.35335 23.4807 1.36398 23.4647C1.37462 23.4488 1.38969 23.4363 1.40733 23.4288ZM2.63441 29.2221L5.40924 31.2744C5.4285 31.2889 5.44176 31.31 5.44649 31.3336C5.45122 31.3573 5.44709 31.3819 5.4349 31.4027C5.34668 31.5731 5.30958 31.7654 5.32804 31.9564C5.34651 32.1474 5.41976 32.3291 5.53898 32.4794C5.65821 32.6298 5.81834 32.7426 6.00011 32.8041C6.18189 32.8657 6.37757 32.8734 6.56364 32.8264C6.58584 32.82 6.60958 32.8217 6.63069 32.8311C6.6518 32.8405 6.66893 32.857 6.67908 32.8777L8.14559 35.7851C8.16697 35.8321 8.10284 35.8749 8.07291 35.8321L2.63441 29.2221ZM9.82588 37.2644C9.79675 37.2592 9.76982 37.2454 9.74851 37.2249C9.7272 37.2043 9.71247 37.1779 9.70617 37.149C9.68541 37.057 9.63953 36.9727 9.57363 36.9053C9.51799 36.8503 9.4506 36.8087 9.37655 36.7835C9.30249 36.7583 9.22369 36.7503 9.14607 36.7599C9.092 36.7682 9.03669 36.759 8.98823 36.7336C8.93977 36.7082 8.9007 36.668 8.87671 36.6188L6.93134 32.7708C6.92078 32.75 6.91799 32.726 6.92347 32.7033C6.92896 32.6806 6.94235 32.6606 6.96127 32.6468C6.98751 32.6263 7.01184 32.6034 7.03395 32.5784C7.03395 32.5784 7.03395 32.5784 7.05533 32.5784L14.3708 37.7903C14.3962 37.8092 14.4157 37.8349 14.4271 37.8644C14.4384 37.8939 14.4412 37.9261 14.4349 37.9571C14.4307 38.014 14.4307 38.0712 14.4349 38.1281C14.4355 38.1478 14.4315 38.1673 14.4232 38.1852C14.415 38.2031 14.4028 38.2189 14.3875 38.2313C14.3722 38.2437 14.3542 38.2524 14.335 38.2567C14.3158 38.2611 14.2959 38.261 14.2767 38.2564L9.82588 37.2644ZM22.6183 38.825C22.5917 38.8404 22.5614 38.8485 22.5307 38.8485C22.4999 38.8485 22.4697 38.8404 22.443 38.825C22.3904 38.7795 22.3274 38.7476 22.2596 38.7319C22.1918 38.7163 22.1212 38.7174 22.054 38.7352C21.9741 38.7542 21.9013 38.7957 21.8444 38.8549C21.8198 38.8801 21.7894 38.8991 21.756 38.9102C21.7225 38.9214 21.6869 38.9244 21.6521 38.9191L16.5556 38.2906C16.5155 38.2855 16.4784 38.2665 16.451 38.2367C16.4236 38.207 16.4077 38.1685 16.406 38.1281C16.4123 38.0727 16.4123 38.0168 16.406 37.9613C16.4029 37.9438 16.4036 37.9259 16.4078 37.9086C16.4121 37.8914 16.4199 37.8752 16.4308 37.8612C16.4416 37.8471 16.4553 37.8354 16.4709 37.8269C16.4865 37.8184 16.5037 37.8132 16.5214 37.8117L25.2777 37.1661C25.3004 37.1657 25.3228 37.171 25.343 37.1814C25.3632 37.1919 25.3804 37.2072 25.3932 37.226C25.4338 37.2892 25.4811 37.348 25.5342 37.4013C25.5458 37.4081 25.5553 37.4177 25.562 37.4294C25.5686 37.441 25.5721 37.4541 25.5721 37.4675C25.5721 37.4809 25.5686 37.4941 25.562 37.5057C25.5553 37.5173 25.5458 37.527 25.5342 37.5338L22.6183 38.825ZM32.1442 34.3186L32.0331 34.3955C31.9 34.3983 31.7731 34.4519 31.6782 34.5452C31.5994 34.6266 31.5498 34.7319 31.5371 34.8445L31.4516 34.9599L27.3898 36.7343C27.3711 36.7425 27.3507 36.7462 27.3303 36.7449C27.3099 36.7437 27.2901 36.7376 27.2725 36.7271C27.2549 36.7167 27.2401 36.7021 27.2293 36.6848C27.2185 36.6674 27.2119 36.6478 27.2103 36.6274C27.2061 36.552 27.1932 36.4774 27.1718 36.4051C27.1611 36.3735 27.1595 36.3395 27.1671 36.3071C27.1746 36.2746 27.191 36.2449 27.2145 36.2212L32.3837 30.9537C32.4136 30.922 32.4498 30.8968 32.4898 30.8795C32.5299 30.8623 32.5731 30.8534 32.6167 30.8534C32.6603 30.8534 32.7035 30.8623 32.7435 30.8795C32.7836 30.8968 32.8197 30.922 32.8497 30.9537C32.8643 30.9705 32.88 30.9862 32.8967 31.0008C32.9736 31.0789 33.0581 31.149 33.149 31.2103C33.2088 31.253 33.2523 31.3147 33.2725 31.3854C33.2927 31.456 33.2884 31.5315 33.2602 31.5993L32.1442 34.3186ZM37.2749 22.6121C37.2789 22.6518 37.2728 22.6918 37.2571 22.7285C37.2414 22.7651 37.2166 22.7972 37.1851 22.8216C37.1517 22.8462 37.1202 22.8734 37.0911 22.9029C36.9286 23.0651 36.8275 23.2786 36.8049 23.507C36.7823 23.7355 36.8396 23.9647 36.9671 24.1556C36.9903 24.192 37.0026 24.2343 37.0026 24.2775C37.0026 24.3206 36.9903 24.3629 36.9671 24.3993L35.0174 27.9523C34.9967 27.9897 34.9636 28.0187 34.9238 28.0343C34.884 28.0499 34.84 28.0511 34.7994 28.0378C34.7173 28.0071 34.6329 27.9828 34.5471 27.9651C34.5237 27.9605 34.5014 27.9513 34.4816 27.9381C34.4618 27.9248 34.4449 27.9077 34.4317 27.8878C34.4186 27.8679 34.4096 27.8456 34.4051 27.8222C34.4007 27.7987 34.401 27.7747 34.406 27.7513L36.0649 19.4397C36.069 19.4163 36.0777 19.394 36.0905 19.3741C36.1033 19.3541 36.1199 19.3369 36.1394 19.3233C36.1589 19.3098 36.1808 19.3003 36.204 19.2953C36.2272 19.2903 36.2511 19.29 36.2744 19.2943C36.4156 19.3221 36.5608 19.3221 36.702 19.2943C36.7271 19.2881 36.7532 19.2872 36.7786 19.2917C36.8041 19.2963 36.8283 19.3061 36.8497 19.3206C36.8711 19.3352 36.8891 19.354 36.9027 19.376C36.9163 19.398 36.9251 19.4226 36.9286 19.4482L37.2749 22.6121ZM36.6549 17.0112C36.6591 17.0489 36.6555 17.0871 36.6445 17.1235C36.6335 17.1598 36.6153 17.1936 36.591 17.2227C36.5666 17.2519 36.5366 17.2758 36.5028 17.2931C36.469 17.3104 36.432 17.3206 36.3941 17.3233C36.1547 17.3394 35.9295 17.4428 35.7614 17.614L35.7357 17.6397L29.1599 13.6207C29.1015 13.5827 29.0573 13.5264 29.0341 13.4607C29.0109 13.395 29.01 13.3235 29.0316 13.2572C29.049 13.2042 29.0618 13.1499 29.0701 13.0948C29.0831 13.0238 29.1207 12.9597 29.1762 12.9136C29.2316 12.8675 29.3016 12.8423 29.3737 12.8425H35.4193C35.4748 12.8423 35.5291 12.8589 35.5749 12.8902C35.6207 12.9215 35.6559 12.966 35.6758 13.0178C35.7258 13.1518 35.803 13.2741 35.9025 13.3769C35.9696 13.4412 36.0443 13.4972 36.1248 13.5437C36.1691 13.5665 36.2071 13.5999 36.2354 13.641C36.2638 13.682 36.2816 13.7293 36.2873 13.7788L36.6549 17.0112ZM35.4749 12.5902H29.3267C29.2584 12.5893 29.1923 12.5657 29.1389 12.5232C29.0855 12.4806 29.0478 12.4215 29.0316 12.3551C28.9789 12.1469 28.8891 11.9499 28.7666 11.7736C28.7263 11.7135 28.7086 11.6411 28.7164 11.5692C28.7242 11.4972 28.7571 11.4304 28.8093 11.3803L31.4431 8.81494C31.4595 8.80021 31.4808 8.79207 31.5029 8.79207C31.525 8.79207 31.5463 8.80021 31.5628 8.81494C31.7367 8.97325 31.9606 9.06554 32.1956 9.07575C32.3741 9.08117 32.5509 9.03991 32.7086 8.95603C32.7324 8.94416 32.7594 8.94025 32.7855 8.94487C32.8117 8.94949 32.8357 8.96239 32.854 8.98168L35.6416 12.1755C35.6628 12.198 35.6768 12.2262 35.6822 12.2566C35.6875 12.2869 35.6838 12.3182 35.6716 12.3465C35.6582 12.3844 35.6468 12.4229 35.6374 12.462C35.6287 12.4985 35.6079 12.5311 35.5784 12.5544C35.549 12.5777 35.5125 12.5903 35.4749 12.5902Z" fill="white"/>
<defs>
<linearGradient id="paint0_linear_1830_2130" x1="19.613" y1="19.953" x2="10.0776" y2="28.7446" gradientUnits="userSpaceOnUse">
<stop stop-color="#171420"/>
<stop offset="0.27" stop-color="#1A1422"/>
<stop offset="0.44" stop-color="#22152B"/>
<stop offset="0.58" stop-color="#311738"/>
<stop offset="0.71" stop-color="#46194C"/>
<stop offset="0.82" stop-color="#601C65"/>
<stop offset="0.93" stop-color="#812083"/>
<stop offset="1" stop-color="#9A239B"/>
</linearGradient>
<linearGradient id="paint1_linear_1830_2130" x1="19.4708" y1="20.083" x2="29.7893" y2="9.76462" gradientUnits="userSpaceOnUse">
<stop stop-color="#171420"/>
<stop offset="0.2" stop-color="#171522"/>
<stop offset="0.32" stop-color="#18192B"/>
<stop offset="0.42" stop-color="#181F39"/>
<stop offset="0.5" stop-color="#19284D"/>
<stop offset="0.58" stop-color="#1B3467"/>
<stop offset="0.65" stop-color="#1C4287"/>
<stop offset="0.72" stop-color="#1E52AC"/>
<stop offset="0.78" stop-color="#2064D3"/>
</linearGradient>
</defs>
</svg>
